<svg width="21" height="21" viewBox="0 0 21 21" fill="none" xmlns="http://www.w3.org/2000/svg">
<path d="M20.8571 10.1431C19.5829 8.79079 18.0519 7.61061 16.3211 6.64648L13.6255 8.8286C14.7685 10.2236 14.2982 12.1045 12.5749 13.0297C11.3205 13.7033 9.68976 13.7032 8.43545 13.0295L6.01367 14.9924C7.39006 15.6053 8.92967 15.9387 10.5003 15.9639C16.2004 15.9639 20.6697 11.0654 20.8572 10.8565C21.0479 10.6438 21.0479 10.3558 20.8571 10.1431Z" fill="#424242"/>
<path d="M10.5 5.03516C4.7999 5.03516 0.330595 9.93427 0.143077 10.1431C-0.0476924 10.3559 -0.0476924 10.6438 0.143077 10.8565C1.41729 12.2088 2.94833 13.389 4.67914 14.3531L7.3747 12.171C6.96723 11.676 6.74988 11.0944 6.74992 10.4995C6.74658 8.82557 8.42018 7.46641 10.4879 7.46371C11.2267 7.46275 11.9493 7.63874 12.5647 7.96948L14.9865 6.00654C13.6102 5.39372 12.0706 5.06034 10.5 5.03516Z" fill="#424242"/>
<path d="M4.67945 14.355L1.71991 16.749C1.42683 16.9861 1.4267 17.3706 1.71951 17.6078C2.01237 17.8451 2.48734 17.8452 2.78041 17.6081L6.0137 14.9925C5.55499 14.7998 5.10955 14.587 4.67945 14.355Z" fill="#424242"/>
<path d="M19.2805 3.39189C18.9877 3.15463 18.5127 3.15453 18.2196 3.39157L14.9863 6.00657C15.4451 6.19928 15.8905 6.41209 16.3206 6.64408L19.2802 4.25068C19.5732 4.01364 19.5733 3.62914 19.2805 3.39189Z" fill="#424242"/>
<path d="M12.5651 7.96973L7.375 12.1712C7.65388 12.5121 8.0145 12.804 8.43551 13.0298L13.6256 8.82887C13.3465 8.48802 12.9859 8.19588 12.5651 7.96973Z" fill="#424242"/>
</svg>
