<svg width="21" height="11" viewBox="0 0 21 11" fill="none" xmlns="http://www.w3.org/2000/svg">
<path d="M20.8432 5.09239C20.6558 4.88469 16.1471 0 10.5 0C4.85291 0 0.344306 4.88469 0.156823 5.09239C-0.0522744 5.32453 -0.0522744 5.67547 0.156823 5.90761C0.344306 6.11531 4.85299 11 10.5 11C16.147 11 20.6557 6.11531 20.8432 5.90761C21.0523 5.67547 21.0523 5.32453 20.8432 5.09239ZM10.5 9.77778C8.12558 9.77778 6.19338 7.85852 6.19338 5.5C6.19338 3.14148 8.12558 1.22222 10.5 1.22222C12.8745 1.22222 14.8067 3.14148 14.8067 5.5C14.8067 7.85852 12.8745 9.77778 10.5 9.77778Z" fill="#424242"/>
<path d="M11.1152 4.27767C11.1152 3.66289 11.4225 3.12206 11.8899 2.78941C11.4705 2.57613 11.0026 2.44434 10.5 2.44434C8.80388 2.44434 7.42383 3.81514 7.42383 5.49989C7.42383 7.18464 8.80388 8.55545 10.5 8.55545C12.0186 8.55545 13.2754 7.45406 13.5238 6.01494C12.2848 6.41114 11.1152 5.48042 11.1152 4.27767Z" fill="#424242"/>
</svg>
